/* XPM */
static char *Y2F0[] = {
/* columns rows colors chars-per-pixel */
"57 56 19 1 ",
"  c black",
". c #3D3839",
"X c #3E3839",
"o c #3E3939",
"O c #3E393A",
"+ c #696061",
"@ c #696161",
"# c #6A6161",
"$ c #6A6162",
"% c #83797A",
"& c #84797A",
"* c #847A7A",
"= c #847A7B",
"- c #ACA2A3",
"; c #ADA2A3",
": c #ADA3A3",
"> c #ADA3A4",
", c white",
"< c #0C5007",
/* pixels */
"<<<<<<<<<<<<<<<<<<<<<<<<<<<<oooooooooooo<<<<<<<<<<<<<<<<<",
"<<<<<<<<<<<<<<<<<<<<<<<<<ooo===%=%==****ooooo<<<<<<<<<<<<",
"<<<<<<<<<<<<<<<<<<<<<<oXo==***=*==%+%****====o<<<<<<<<<<<",
"<<<<<<<<<<<<<<<<<<<<<o**===***++####+++**=====o<<<<<<<<<<",
"<<<<<<<<<<<<<<<<<<<<o=**===#+##+##########====*o<<<<<<<<<",
"<<<<<<<<<<<<<<<<<<<o==**==###oooooooooooo+##*=**o<<<<<<<<",
"<<<<<<<<<<<<<<<<<<<o==***+##o<<<<<<<<<<<<oo#++**=o<<<<<<<",
"<<<<<<<<<<<<<<<<<<<o++***+#o<<<<<<<<<<<<<<<o+++*==o<<<<<<",
"<<<<<<<<<<<<<<<<<<<o+###++#o<<<<<<<<<<<<<<<<o##=%**o<<<<<",
"<<<<<<<<<<<<<<<<<<<<X#+##+o<<<<<<<<<<<<<<<<<o##===*o<<<<<",
"<<<<<<<<<<<<<<<<<<<<<ooooo<<<<<<ooo<<<<<<<<<<o##****o<<<<",
"<<oooo<<<<<<<<<<<<<<<<<<<<<<<<oo;;=X<<<<<<<<<<o#+%*%o<<<<",
"<o;;;:o<<<<<<<<<<<<<<<<<<<<<oo::*&%%o<<<<<<<<<<o++=**o<<<",
"<o===%;oo<<<<<<<<<<<<<<<<<<o::==oo**o<<<<<<<<<<o++***o<<<",
"o%%=*%*;;oo<<<<<<<<<<<<<<<o;==ooo*==o<<<<<<<<<<<o++**o<<<",
"o%==*o**%>;o<<<<<<<<<<<<<o;*=oo#+===o<<<<<<<<<<<o+#***o<<",
"o***#+oo&*%;oXXXoXooXXooX%**oo+++***o<<<<<<<<<<<<o++***o<",
"o***#+##X***%%%&====**%%***oo++++***o<<<<<<<<<<<<<o+***X<",
"o***++##X%%%%=&%*%=*&*****%o++++****o<<<<<<<<<<<<<o+*%*X<",
"o***++#+o***%***%*&&%**&**oo###+****o<<<<<<<<<<<<<o++&*X<",
"o****++o**%&**&%***%*&*%&**ooo+***%*o<<<<<<<<<<<<<o#+***o",
"o****+o*****&&*****&********+oo*****o<<<<<<<<<<<<<<o+**&o",
"o%***o**%*%***&&&**&**&%%***=*oo=*==o<<<<<<<<<<<<<<o+*==o",
"<X**++*&&*%******&***%*%*******o+===o<<<<<<<<<<<<<<o+===o",
"<o==********%****&***=**&******X+***o<<<<<<<<<<<<<<o#===o",
"<<o=******&**%%**%&***%******%*****X<<<<<<<<<<<<<<<o+=*=o",
"<<o=******=%&***&**%**==***&***&***X<<<<<<<<<<<<<<<o+***o",
"<<o=***%====***%%*****=%**%*&******o<oooooooooo<<<<o+*&*o",
"<<o**%**=,  ***&******=,  &**&**&**Xo+++####+++o<<o++***o",
"<<X*****=   +%**&*%****   +*&*&&***&***&====*+##oo++****o",
"<<o*&&*%=   +***&&**=*=   +**%&******&%***==**=%##+*****o",
"<<X&%*%*=;;;+%***&**===;;;+%%****&**&&****%**=%%==&&*&&#o",
"<<o%*%*%****&*******&*===*********&**%*****&*****%****#o<",
"<<<o*&*&*&%***=**=****%=*%**&*%%***%*********%%*%%***+o<<",
"<<<o********=% =====* %%%*******&*%*&**&**&&**%**%**+o<<<",
"<<<o&&&*&**&== ==  =* #%%**&*=*%***&***%****&**%%*%*+o<<<",
"<<<<o%==******%  ##  +***%*&****&***%*%***%*********#o<<<",
"<<<<<o==*&&*%*==**==******&***&****%***%&%*****%*%**#o<<<",
"<<<<<o%=*&****%%***=**=*****&%&**o***********%***%==#o<<<",
"<<<<<<o%*******=***==*****%*****X+****%***%**%***===#o<<<",
"<<<<<<<o**=%=**%*%**=*********oo++**********&&******+o<<<",
"<<<<<<<<X%=%==************oooo#++%*%**&*&***&**%****+o<<<",
"<<<<<<<<<ooooooooooooooooX+###++***%******%%****=*==+o<<<",
"<<<<<<<<<o##+++++##++++#++#++*&&%*&*******%*&&&*%==%+o<<<",
"<<<<<<<<<X##+#+#+#####+++##*&***%*%****************##o<<<",
"<<<<<<<<<o+#+##+####+##+##**&**=***&*****++********##o<<<",
"<<<<<<<<o##++#+#+#+++###+***************+#+o***&*%##o<<<<",
"<<<<<<<<o#*******#++#+*********X*&****+#+++X+&***%##o<<<<",
"<<<<<<<<o#%==%===%=====**=*****X++###+#+###o+%=%=+##o<<<<",
"<<<<<<<<o#==*%=ooXoooooo*******ooX##+##++ooo##%=*+#o<<<<<",
"<<<<<<<<o#==**X<<<<<<<<<o+==***o<<ooooXoo+oo##%%+##o<<<<<",
"<<<<<<<<<X+=&*X<<<<<<<<<o+==***o<<<<o++###o<X#%#+#o<<<<<<",
"<<<<<<<<<o#%==o<<<<<<<<<o##%%=oo<<<<o#+##o<<o####o<<<<<<<",
"<<<<<<<<<o##==o<<<<<<<<<<o####o<<<<<o###o<<<XX###o<<<<<<<",
"<<<<<<<<<<o#+X<<<<<<<<<<<<o##o<<<<<<<o.o<<<<<o##o<<<<<<<<",
"<<<<<<<<<<<oo<<<<<<<<<<<<<<ooo<<<<<<<<<<<<<<<ooo<<<<<<<<<"
};
