/* XPM */
static char *exit_big[] = {
/* columns rows colors chars-per-pixel */
"48 48 34 1 ",
"  c #060606",
". c #081906",
"X c #171105",
"o c #281C05",
"O c #092B07",
"+ c #0B3E07",
"@ c #392704",
"# c #392D14",
"$ c #4A3203",
"% c #443B05",
"& c #533B03",
"* c #4A3813",
"= c #4B3F24",
"- c #0C5007",
"; c #5C4404",
": c #534114",
"> c #6D5604",
", c #5C5124",
"< c #745B2A",
"1 c #605337",
"2 c #6A5731",
"3 c #4B4B44",
"4 c #776542",
"5 c #836F03",
"6 c #806E42",
"7 c #8B7F5C",
"8 c #FFD800",
"9 c #97845F",
"0 c #A59980",
"q c #AFA38A",
"w c #B6AB81",
"e c #B8AC8A",
"r c #BAAD94",
"t c #FFFFFD",
/* pixels */
"------------------------------------------------",
"------------------------------------------------",
"------------------------------------------------",
"------------                        ------------",
"------------ Xo    %55555555555555% ------------",
"------------ o$    5888888888888885 ------------",
"------------ o$$$$$o     5888888885 ------------",
"------------ o$;:=$@oooo %555588885 ------------",
"------------ o$>,3$$$$$$      88885 ------------",
"------------ o$31<333>;$$$$$o    85 ------------",
"------------ o$31<111w6$$&;=#oooo5% ------------",
"------------ o$31<<<<t0$$;>3=$$$$   ------------",
"------------ o$31<<<<t0$$=3<133,>$o ------------",
"------------ o$31<<<<t0$$=3<2117w$o ------------",
"------------ o$31<<<<t0$$=3<<<<rt$o ------------",
"------------ o$31<<<<t0$$=3<<<<rt$o ------------",
"------------ o$31<<<<t0$$=3<<<<rt$o ------------",
"------------ o$31<<<<t0$$=3<<<<rt$o ------------",
"------------ o$31<<<<t0$$=3<<<<rt$o ------------",
"------------ o$31<<<<t0$$=3<<<<rt$o ------------",
"------------ o$31<<<<t0$$=3<<<<rt$o ------------",
"------------ o$>wt<<<t0$$;>tr<<rt$o ------------",
"------------ o$;60rrrw6$$&;0qrrew$o ------------",
"------------ o$$$$ttt>;$$$$$0ttw>$o ------------",
"------------ o$$$$$$$$$$$$$$$$$$$$o ------------",
"------------ o$;:=$$$$$$$&;=*$$$$$o ------------",
"------------ o$>,3$$$$$$$;>3=$$$$$o ------------",
"------------ o$31<333>;$$=3<133,>$o ------------",
"------------ o$31<111w6$$=3<2117w$o ------------",
"------------ o$31<<<<t0$$=3<<<<rt$o ------------",
"------------ o$31<<<<t0$$=3<<<<rt$o ------------",
"------------ o$31<<<<t0$$=3<<<<rt$o ------------",
"------------ o$31<<<<t0$$=3<<<<rt$o ------------",
"------------ o$31<<<<t0$$=3<<<<rt$o ------------",
"------------ o$31<<<<t0$$=3<<<<rt$o ------------",
"------------ o$31<<<<t0$$=3<<<<rt$o ------------",
"------------ o$31<<<<t0$$=3<<<<rt$o ------------",
"------------ o$31<<<<t0$$=3<<<<rt$o ------------",
"------------ o$31<<<<t0$$=3<<<<rt$o ------------",
"------------ o$31<<<<t0$$=3<<<<rt$o ------------",
"------------ o$,7r<<<t0$$:,r9<<rt$o ------------",
"------------ o$>wt<<<t0$$;>tr<<rt$o ------------",
"------------ o$$$$ttt>;$$$$$0ttw>$o ------------",
"------------ Xoooo000;&$$$$$4006;$o ------------",
"------------      $$$$$$$$$$$$$$$$o ------------",
"----------------O             $$$$o ------------",
"----------------+OOOOOOOOOOO. ooooX ------------",
"----------------------------O       ------------"
};
