/* XPM */
static char *exit_big[] = {
/* columns rows colors chars-per-pixel */
"48 48 22 1 ",
"  c #060606",
". c #171105",
"X c #281C05",
"o c #4A3203",
"O c #533B03",
"+ c #4B3F24",
"@ c #0C5007",
"# c #5C4404",
"$ c #534114",
"% c #6D5604",
"& c #5C5124",
"* c #5E522E",
"= c #745B2A",
"- c #605337",
"; c #4B4B44",
": c #806E42",
"> c #8B7F5C",
", c #A59980",
"< c #B6AB81",
"1 c #B8AC8A",
"2 c #BAAD94",
"3 c #FFFFFD",
/* pixels */
"@@@@@@@@@@@@@@@@@@@@@@@@@@@@@@@@@@@@@@@@@@@@@@@@",
"@@@@@@@@@@@@@@@@@@@@@@@@@@@@@@@@@@@@@@@@@@@@@@@@",
"@@@@@@@@@@@@@@@@@@@@@@@@@@@@@@@@@@@@@@@@@@@@@@@@",
"@@@@@@@@@@@@                        @@@@@@@@@@@@",
"@@@@@@@@@@@@ .XXXXXXXXXXXXXXXXXXXX. @@@@@@@@@@@@",
"@@@@@@@@@@@@ XooooooooooooooooooooX @@@@@@@@@@@@",
"@@@@@@@@@@@@ Xo%&;;;;%#oo#%;;;;&%oX @@@@@@@@@@@@",
"@@@@@@@@@@@@ Xo&*----<:oo$&----><oX @@@@@@@@@@@@",
"@@@@@@@@@@@@ Xo;-====3,oo+;====23oX @@@@@@@@@@@@",
"@@@@@@@@@@@@ Xo;-====3,oo+;====23oX @@@@@@@@@@@@",
"@@@@@@@@@@@@ Xo;-====3,oo+;====23oX @@@@@@@@@@@@",
"@@@@@@@@@@@@ Xo;-====3,oo+;====23oX @@@@@@@@@@@@",
"@@@@@@@@@@@@ Xo;-====3,oo+;====23oX @@@@@@@@@@@@",
"@@@@@@@@@@@@ Xo;-====3,oo+;====23oX @@@@@@@@@@@@",
"@@@@@@@@@@@@ Xo;-====3,oo+;====23oX @@@@@@@@@@@@",
"@@@@@@@@@@@@ Xo;-====3,oo+;====23oX @@@@@@@@@@@@",
"@@@@@@@@@@@@ Xo;-====3,oo+;====23oX @@@@@@@@@@@@",
"@@@@@@@@@@@@ Xo;-====3,oo+;====23oX @@@@@@@@@@@@",
"@@@@@@@@@@@@ Xo;-====3,oo+;====23oX @@@@@@@@@@@@",
"@@@@@@@@@@@@ Xo;-====3,oo+;====23oX @@@@@@@@@@@@",
"@@@@@@@@@@@@ Xo;-====3,oo+;====23oX @@@@@@@@@@@@",
"@@@@@@@@@@@@ Xo%<3333%#oo#%3333<%oX @@@@@@@@@@@@",
"@@@@@@@@@@@@ Xo#:,,,,#OooO#,,,,:#oX @@@@@@@@@@@@",
"@@@@@@@@@@@@ XooooooooooooooooooooX @@@@@@@@@@@@",
"@@@@@@@@@@@@ XooooooooooooooooooooX @@@@@@@@@@@@",
"@@@@@@@@@@@@ Xo#$++++#OooO#++++$#oX @@@@@@@@@@@@",
"@@@@@@@@@@@@ Xo%&;;;;%#oo#%;;;;&%oX @@@@@@@@@@@@",
"@@@@@@@@@@@@ Xo;-====3,oo+;====23oX @@@@@@@@@@@@",
"@@@@@@@@@@@@ Xo;-====3,oo+;====23oX @@@@@@@@@@@@",
"@@@@@@@@@@@@ Xo;-====3,oo+;====23oX @@@@@@@@@@@@",
"@@@@@@@@@@@@ Xo;-====3,oo+;====23oX @@@@@@@@@@@@",
"@@@@@@@@@@@@ Xo;-====3,oo+;====23oX @@@@@@@@@@@@",
"@@@@@@@@@@@@ Xo;-====3,oo+;====23oX @@@@@@@@@@@@",
"@@@@@@@@@@@@ Xo;-====3,oo+;====23oX @@@@@@@@@@@@",
"@@@@@@@@@@@@ Xo;-====3,oo+;====23oX @@@@@@@@@@@@",
"@@@@@@@@@@@@ Xo;-====3,oo+;====23oX @@@@@@@@@@@@",
"@@@@@@@@@@@@ Xo;-====3,oo+;====23oX @@@@@@@@@@@@",
"@@@@@@@@@@@@ Xo;-====3,oo+;====23oX @@@@@@@@@@@@",
"@@@@@@@@@@@@ Xo;-====3,oo+;====23oX @@@@@@@@@@@@",
"@@@@@@@@@@@@ Xo;-====3,oo+;====23oX @@@@@@@@@@@@",
"@@@@@@@@@@@@ Xo&>2222<:oo$&22221<oX @@@@@@@@@@@@",
"@@@@@@@@@@@@ Xo%<3333%#oo#%3333<%oX @@@@@@@@@@@@",
"@@@@@@@@@@@@ XooooooooooooooooooooX @@@@@@@@@@@@",
"@@@@@@@@@@@@ .XXXXXXXXXXXXXXXXXXXX. @@@@@@@@@@@@",
"@@@@@@@@@@@@                        @@@@@@@@@@@@",
"@@@@@@@@@@@@@@@@@@@@@@@@@@@@@@@@@@@@@@@@@@@@@@@@",
"@@@@@@@@@@@@@@@@@@@@@@@@@@@@@@@@@@@@@@@@@@@@@@@@",
"@@@@@@@@@@@@@@@@@@@@@@@@@@@@@@@@@@@@@@@@@@@@@@@@"
};
