/* XPM */
static char *fish_big[] = {
/* columns rows colors chars-per-pixel */
"48 48 208 2 ",
"   c black",
".  c #0A0A00",
"X  c #030308",
"o  c #00060A",
"O  c #04040C",
"+  c #151400",
"@  c #1F1D00",
"#  c #050610",
"$  c #050611",
"%  c #000C14",
"&  c #070818",
"*  c #080918",
"=  c #080919",
"-  c #08091B",
";  c #00121F",
":  c #00131F",
">  c #15261F",
",  c #292700",
"<  c #333000",
"1  c #333100",
"2  c #393600",
"3  c #0A0C21",
"4  c #0B0C21",
"5  c #0D0E29",
"6  c #0D0F29",
"7  c #001929",
"8  c #0F1131",
"9  c #0F1231",
"0  c #001F33",
"q  c #011F33",
"w  c #101335",
"e  c #0B2329",
"r  c #01253D",
"t  c #555100",
"y  c #5C5700",
"u  c #666100",
"i  c #141742",
"p  c #151844",
"a  c #171A49",
"s  c #191D52",
"d  c #01375C",
"f  c #01385C",
"g  c #1E2261",
"h  c #1E2362",
"j  c #1F2362",
"k  c #013E66",
"l  c #202467",
"z  c #22276E",
"x  c #262B7A",
"c  c #262B7B",
"v  c #3D575E",
"b  c #3E725C",
"n  c #0D4365",
"m  c #014A7B",
"M  c #254D61",
"N  c #20677B",
"B  c #347A7A",
"V  c #857E00",
"C  c #999100",
"Z  c #A39B00",
"A  c #AAA100",
"S  c #AEA500",
"D  c #9AB63D",
"F  c #C2B800",
"G  c #CCC200",
"H  c #D6CB00",
"J  c #D6CC00",
"K  c #E0D500",
"L  c #EBDF00",
"P  c #F7EB08",
"I  c #FFF200",
"U  c #F0E511",
"Y  c #D9D029",
"T  c #E0D721",
"R  c #B2AE52",
"E  c #9B9A6A",
"W  c #88B47B",
"Q  c #9AC352",
"!  c #9ACF66",
"~  c #282E83",
"^  c #2A3088",
"/  c #2A3089",
"(  c #26388F",
")  c #2E3494",
"_  c #2F3597",
"`  c #31379D",
"'  c #31389F",
"]  c #323AA3",
"[  c #333AA3",
"{  c #333AA5",
"}  c #333BA6",
"|  c #353DAD",
" . c #015085",
".. c #015C99",
"X. c #015D99",
"o. c #2644A3",
"O. c #3340AD",
"+. c #3346B8",
"@. c #0263A3",
"#. c #0169AD",
"$. c #565CB4",
"%. c #5E63AC",
"&. c #656AA3",
"*. c #3F48CC",
"=. c #3A4FD0",
"-. c #3555D4",
";. c #3655D4",
":. c #3852D2",
">. c #3358D6",
",. c #3359D6",
"<. c #395BD5",
"1. c #3F5ED5",
"2. c #106ECA",
"3. c #0275C2",
"4. c #027BCC",
"5. c #1574DB",
"6. c #1F75DF",
"7. c #266CD7",
"8. c #2B62DC",
"9. c #2C62DC",
"0. c #2966DE",
"q. c #2966DF",
"w. c #266BD9",
"e. c #266BDB",
"r. c #336EDF",
"t. c #3F73DD",
"y. c #1F73E7",
"u. c #187FE7",
"i. c #1D76E9",
"p. c #177EEE",
"a. c #1A79EB",
"s. c #1B79EB",
"d. c #187DED",
"f. c #2769E0",
"g. c #2769E1",
"h. c #256BE2",
"j. c #246CE2",
"k. c #226FE5",
"l. c #2270E5",
"z. c #2072E7",
"x. c #3E7FE2",
"c. c #5165D2",
"v. c #3593A3",
"b. c #76998F",
"n. c #67BD99",
"m. c #7AAEBB",
"M. c #1A85C9",
"N. c #0281D6",
"B. c #0282D6",
"V. c #3984CC",
"C. c #3798CC",
"Z. c #35ACCC",
"A. c #0984E5",
"S. c #0288E0",
"D. c #0D8FE6",
"F. c #0C87ED",
"G. c #028EEB",
"H. c #0D8DEA",
"J. c #1680EF",
"K. c #0D90E2",
"L. c #0B92E8",
"P. c #0894EE",
"I. c #0E8AF5",
"U. c #0C8DF7",
"Y. c #0294F5",
"T. c #0794FB",
"R. c #0497FD",
"E. c #0597FD",
"W. c #0991F9",
"Q. c #029AFF",
"!. c #089DFE",
"~. c #0E9FFD",
"^. c #2D81E9",
"/. c #3F88E6",
"(. c #3F9EEE",
"). c #3F9EEF",
"_. c #2694F2",
"`. c #2A9AF3",
"'. c #14A2FD",
"]. c #20A7FB",
"[. c #26A9FA",
"{. c #32AEF8",
"}. c #32AFF9",
"|. c #38B1F7",
" X c #3EB3F7",
".X c #3FB3F7",
"XX c #4A9AC2",
"oX c #6382D8",
"OX c #759FDE",
"+X c #5596E4",
"@X c #6397E1",
"#X c #46A9F0",
"$X c #44B6F6",
"%X c #4BB8F5",
"&X c #4BB9F5",
"*X c #57BDF3",
"=X c #57BEF3",
"-X c #51BBF4",
";X c #6FB2E8",
":X c #5DC0F2",
">X c #5DC0F3",
",X c #7BCCEE",
"<X c #7BCDEE",
"1X c #63C3F1",
"2X c #848583",
"3X c #87BCE4",
"4X c #99D9EA",
"5X c #0C5007",
/* pixels */
"5X5X5X5X5X5X5X5X5X5X5X5X5X5X5X5X5X5X5X5X5X5X5X5X5X5X5X5X5X5X5X5X5X5X5X5X5X5X5X5X5X5X5X5X5X5X5X5X",
"5X5X5X5X5X5X5X5X5X5X5X5X5X5X5X5X5X5X5X5X5X5X5X5X5X5X5X5X5X5X5X5X5X5X5X5X5X5X5X5X5X5X5X5X5X5X5X5X",
"5X5X5X5X5X5X5X5X5X5X5X5X5X5X5X5X5X5X5X5X5X5X5X5X5X5X5X5X5X5X5X5X5X5X5X5X5X5X5X5X5X5X5X5X5X5X5X5X",
"5X5X5X5X5X5X5X5X5X5X5X5X5X5X5X5X5X5X5X5X5X5X5X5X5X5X5X5X5X5X5X5X5X5X5X5X5X5X5X5X5X5X5X5X5X5X5X5X",
"5X5X5X5X5X5X5X5X5X5X5X5X5X5X5X5X5X5X5X5X5X5X5X5X5X5X5X5X5X5X5X5X5X5X5X5X5X5X5X5X5X5X5X5X5X5X5X5X",
"5X5X5X5X5X5X5X5X5X5X5X5X5X5X5X5X5X5X5X5X5X5X5X5X5X5X5X5X5X5X5X5X5X5X5X5X5X5X5X5X5X5X5X5X5X5X5X5X",
"5X5X5X5X5X5X5X5X5X5X5X5X5X5X5X5X5X5X5X5X5X5X5X5X5X5X5X5X5X5X5X5X5X5X5X5X5X5X5X5X5X5X5X5X5X5X5X5X",
"5X5X5X5X5X5X5X5X5X5X5X5X5X5X5X5X5X5X5X5X5X5X5X5X5X5X5X5X5X5X5X5X5X5X5X5X5X5X5X5X5X5X5X5X5X5X5X5X",
"5X5X5X5X5X5X5X5X5X5X5X5X5X5X5X5X5X5X5X5X5X5X5X5X5X5X5X5X5X5X5X5X5X5X5X5X5X5X5X5X5X5X5X5X5X5X5X5X",
"5X5X5X5X5X5X5X5X5X5X5X5X5X5X5X5X5X5X5X5X5X5X5X5X5X5X5X5X5X5X5X5X5X5X5X5X5X5X5X5X5X5X5X5X5X5X5X5X",
"5X5X5X5X5X5X5X5X5X5X5X5X5X5X5X5X5X5X5X5X5X5X5X5X5X5X5X5X5X5X5X5X5X5X5X5X5X5X5X5X5X5X5X5X5X5X5X5X",
"5X5X5X5X5X5X5X5X5X5X5X5X5X5X5X5X5X5X5X5X5X5X5X5X5X5X5X5X5X5X5X5X5X5X5X5X5X5X5X5X5X5X5X5X5X5X5X5X",
"5X5X5X5X5X5X5X5X5X5X5X5X5X5X5X5X5X5X5X5X5X5X5X5X5X5X5X5X5X5X5X5X5X5X5X5X5X5X5X5X5X5X5X5X5X5X5X5X",
"5X5X5X5X5X5X5X5X5X5X5X5X5X5X5X5X5X5X5X5X5X5X5X5X5X5X5X5X5X5X5X5X5X5X5X5X5X5X5X5X5X5X5X5X5X5X5X5X",
"5X5X5X5X5X5X5X5X5X5X5X5X5X5X5X5X5X5X5X5X5X5X5X5X5X5X5X5X5X5X5X5X5X5X5X5X5X5X5X5X5X5X5X5X5X5X5X5X",
"5X5X5X5X5X5X5X5X*.*.*.*.*.*.*.*.*.*.*.*.*.*.*.*.*.*.*.*.*.*.*.5X5X5X5X5X5X5X5X5X5X5X5X5X5X5X5X5X",
"5X5X5X5X5X5X5X/ c c c c c c c c c c c c c c c c c c c c c c ^ ' 5X5X5X5X5X5X5X5X5X5X5X5X5X5X5X5X",
"5X5X5X5X5X*.{ l 5 5 5 5 5 5 5 5 5 5 5 5 5 5 5 5 5 5 5 5 5 5 p ^ *.5X5X5X5X5X5X5X5X5X5X5X5X5X5X5X",
"5X5X5X5X5X{ ~ i   ; 7 0 0 0 0 0 : o . @ < > e 0 0 7 ;       3 h ] | 5X5X5X5X5X5X5X5X5X5X5X5X5X5X",
"5X5X5X5X/ l i 3   d m X.X.X.X.X.f : @ y C b N X.X.m d       $ 9 s ) } 5X5X5X5X5X5X5X5X5X5X5X5X5X",
"5X5X5X*.c 5       ..4.Q.Q.Q.Q.Q.X.0 < C I n.Z.Q.Q.4...            x [ *.*.*.*.*.5X5X5X5X5X5X5X5X",
"5X5X5Xs 9 # * a x 2.A.Q.Q.Q.Q.Q.B.#.B D I n.Z.Q.Q.G.N...d ;       8 i s s s s s w &             ",
"5X5X5X6 = X 4 j [ 5.F.Q.Q.Q.Q.Q.G.B.v.Q I n.Z.Q.Q.Y.G.4.m 7       = 3 6 6 6 6 6 - O             ",
"5X5X5X      5 c *.a.I.Q.Q.Q.Q.Q.Q.Q.Z.! I n.Z.Q.Q.Q.Q.Q.X.0                                     ",
"*.[ x   k 4.Q.Q.Q.f.,.*.Q.Q.Q.Q.s.>.&.R I I I I Q.Q.Q.Q.X.0                         < C I I I I ",
"*.O.( q  .B.Q.Q.Q.f.,.*.Q.E.T.I.k.;.%.E Y U P I 4.4.4.4.m 7 o : q q q q   . + 1 1 1 y S I I I I ",
"*.+.o.k @.S.Q.Q.Q.f.,.*.Q.T.U.a.q.:.$.2XR T U I ........d ; % r k k k k   + , u u u V F I I I I ",
"*.,.f.Q.Q.Q.Q.Q.Q.f.,.*.Q.I.a.*.*.*.*.*.*.R Y I             0 X.Q.Q.Q.Q.  1 u I I I I I I I I I ",
"7.6.u.Q.Q.Q.Q.Q.Q.f.,.*.Q.I.a.*.*.*.*.*.*.b.W ! v v v v M n  .3.Q.Q.Q.Q.u V Z I I I L F C C C C ",
"K.L.P.Q.Q.Q.Q.Q.Q.f.,.*.Q.I.a.*.*.*.*.*.*.V.C.Z.m.m.m.m.XXM.N.G.Q.Q.Q.Q.G J K I I I H V < < < < ",
"K.D.H.I.W.R.R.W.I.j.9.>.Q.U.J.>.>.>.>.>.>.J.U.Q.,X,X,X,X*X{.].].].~.!.Q.G G G G G G A t         ",
"7.w.e.g.d.W.W.d.g.y.i.s.Q.T.U.s.s.s.s.s.s.U.T.Q..X.X.X.X%X*X>X>X>X[.'.Q.u u u u u u t 2 5X5X5X5X",
"*.*.*.*.g.I.I.g.*.a.I.Q.Q.Q.Q.Q.Q.Q.Q.Q.Q.Q.Q.Q.Q.Q.Q.Q..X,X4X4X4X X].Q.              5X5X5X5X5X",
"5X5X*.*.-.8.j.y.a.U.T.Q.Q.Q.Q.Q.Q.Q.Q.Q.Q.|.&X:X:X:X:X:X-X$X#X+XoXt.r.f.x z g 5X5X5X5X5X5X5X5X5X",
"5X5X5X*.=.-.9.i.I.T.E.Q.Q.Q.Q.Q.Q.Q.Q.Q.Q.&X1X<X<X<X<X<X=X}.`.x.c.1.<.,.[ ` _ 5X5X5X5X5X5X5X5X5X",
"5X5X5X*.*.*.>.s.Q.Q.Q.Q.Q.Q.Q.Q.Q.Q.Q.Q.Q.:X<X4X4X4X4X4X>X].I.g.*.*.*.*.*.*.*.5X5X5X5X5X5X5X5X5X",
"5X5X5X5X5X*.*.*.*.a.I.Q.Q.Q.Q.Q..X,X4X4X4X X].Q.Q.I.a.*.*.*.*.5X5X5X5X5X5X5X5X5X5X5X5X5X5X5X5X5X",
"5X5X5X5X5X5X*.*.*.z.p.I.I.I.I.I.(.;X3X3X3X)._.I.I.d.l.*.*.*.5X5X5X5X5X5X5X5X5X5X5X5X5X5X5X5X5X5X",
"5X5X5X5X5X5X*.*.*.h.z.a.a.a.a.a./.@XOXOXOX/.^.a.a.l.0.*.*.*.5X5X5X5X5X5X5X5X5X5X5X5X5X5X5X5X5X5X",
"5X5X5X5X5X5X5X5X5X*.*.*.*.*.*.*.*.*.*.*.*.*.*.*.*.*.*.*.5X5X5X5X5X5X5X5X5X5X5X5X5X5X5X5X5X5X5X5X",
"5X5X5X5X5X5X5X5X5X5X5X5X5X5X5X5X5X5X5X5X5X5X5X5X5X5X5X5X5X5X5X5X5X5X5X5X5X5X5X5X5X5X5X5X5X5X5X5X",
"5X5X5X5X5X5X5X5X5X5X5X5X5X5X5X5X5X5X5X5X5X5X5X5X5X5X5X5X5X5X5X5X5X5X5X5X5X5X5X5X5X5X5X5X5X5X5X5X",
"5X5X5X5X5X5X5X5X5X5X5X5X5X5X5X5X5X5X5X5X5X5X5X5X5X5X5X5X5X5X5X5X5X5X5X5X5X5X5X5X5X5X5X5X5X5X5X5X",
"5X5X5X5X5X5X5X5X5X5X5X5X5X5X5X5X5X5X5X5X5X5X5X5X5X5X5X5X5X5X5X5X5X5X5X5X5X5X5X5X5X5X5X5X5X5X5X5X",
"5X5X5X5X5X5X5X5X5X5X5X5X5X5X5X5X5X5X5X5X5X5X5X5X5X5X5X5X5X5X5X5X5X5X5X5X5X5X5X5X5X5X5X5X5X5X5X5X",
"5X5X5X5X5X5X5X5X5X5X5X5X5X5X5X5X5X5X5X5X5X5X5X5X5X5X5X5X5X5X5X5X5X5X5X5X5X5X5X5X5X5X5X5X5X5X5X5X",
"5X5X5X5X5X5X5X5X5X5X5X5X5X5X5X5X5X5X5X5X5X5X5X5X5X5X5X5X5X5X5X5X5X5X5X5X5X5X5X5X5X5X5X5X5X5X5X5X",
"5X5X5X5X5X5X5X5X5X5X5X5X5X5X5X5X5X5X5X5X5X5X5X5X5X5X5X5X5X5X5X5X5X5X5X5X5X5X5X5X5X5X5X5X5X5X5X5X"
};
