/* XPM */
static char *Z3Jhc3NfcmFuZG9tX2dyaWQ_[] = {
/* columns rows colors chars-per-pixel */
"64 64 4 1 ",
"  c #064701",
". c #094305",
"X c #0C5007",
"o c #086501",
/* pixels */
"o .....Xo Xo ..Xo .....Xo Xo ..Xo .....Xo Xo ..Xo .....Xo Xo ..X",
"Xo XoXoXo Xo Xo Xo XoXoXo Xo Xo Xo XoXoXo Xo Xo Xo XoXoXo Xo Xo ",
" o o .o Xo Xo o  o o .o Xo Xo o  o o .o Xo Xo o  o o .o Xo Xo o ",
". . ....X .. o  . . ....X .. o  . . ....X .. o  . . ....X .. o  ",
".Xo .XoXo.. . Xo.Xo .XoXo.. . Xo.Xo .XoXo.. . Xo.Xo .XoXo.. . Xo",
" .Xo Xo XoXo .Xo .Xo Xo XoXo .Xo .Xo Xo XoXo .Xo .Xo Xo XoXo .Xo",
"o .o .Xo o oXo  o .o .Xo o oXo  o .o .Xo o oXo  o .o .Xo o oXo  ",
" .. Xo. ... .o . .. Xo. ... .o . .. Xo. ... .o . .. Xo. ... .o .",
"Xo .. Xo..Xo Xo Xo .. Xo..Xo Xo Xo .. Xo..Xo Xo Xo .. Xo..Xo Xo ",
"Xo .o.Xo o. .. .Xo .o.Xo o. .. .Xo .o.Xo o. .. .Xo .o.Xo o. .. .",
".Xo.oXo .o Xo Xo.Xo.oXo .o Xo Xo.Xo.oXo .o Xo Xo.Xo.oXo .o Xo Xo",
".. . .Xo ..Xo Xo.. . .Xo ..Xo Xo.. . .Xo ..Xo Xo.. . .Xo ..Xo Xo",
"XoXo ..o Xo. o  XoXo ..o Xo. o  XoXo ..o Xo. o  XoXo ..o Xo. o  ",
"Xo .Xo. .Xo . ..Xo .Xo. .Xo . ..Xo .Xo. .Xo . ..Xo .Xo. .Xo . ..",
"o .Xo.XoXo  .Xo.o .Xo.XoXo  .Xo.o .Xo.XoXo  .Xo.o .Xo.XoXo  .Xo.",
" ..Xo.. . ..Xo . ..Xo.. . ..Xo . ..Xo.. . ..Xo . ..Xo.. . ..Xo .",
"o .....Xo Xo ..Xo .....Xo Xo ..Xo .....Xo Xo ..Xo .....Xo Xo ..X",
"Xo XoXoXo Xo Xo Xo XoXoXo Xo Xo Xo XoXoXo Xo Xo Xo XoXoXo Xo Xo ",
" o o .o Xo Xo o  o o .o Xo Xo o  o o .o Xo Xo o  o o .o Xo Xo o ",
". . ....X .. o  . . ....X .. o  . . ....X .. o  . . ....X .. o  ",
".Xo .XoXo.. . Xo.Xo .XoXo.. . Xo.Xo .XoXo.. . Xo.Xo .XoXo.. . Xo",
" .Xo Xo XoXo .Xo .Xo Xo XoXo .Xo .Xo Xo XoXo .Xo .Xo Xo XoXo .Xo",
"o .o .Xo o oXo  o .o .Xo o oXo  o .o .Xo o oXo  o .o .Xo o oXo  ",
" .. Xo. ... .o . .. Xo. ... .o . .. Xo. ... .o . .. Xo. ... .o .",
"Xo .. Xo..Xo Xo Xo .. Xo..Xo Xo Xo .. Xo..Xo Xo Xo .. Xo..Xo Xo ",
"Xo .o.Xo o. .. .Xo .o.Xo o. .. .Xo .o.Xo o. .. .Xo .o.Xo o. .. .",
".Xo.oXo .o Xo Xo.Xo.oXo .o Xo Xo.Xo.oXo .o Xo Xo.Xo.oXo .o Xo Xo",
".. . .Xo ..Xo Xo.. . .Xo ..Xo Xo.. . .Xo ..Xo Xo.. . .Xo ..Xo Xo",
"XoXo ..o Xo. o  XoXo ..o Xo. o  XoXo ..o Xo. o  XoXo ..o Xo. o  ",
"Xo .Xo. .Xo . ..Xo .Xo. .Xo . ..Xo .Xo. .Xo . ..Xo .Xo. .Xo . ..",
"o .Xo.XoXo  .Xo.o .Xo.XoXo  .Xo.o .Xo.XoXo  .Xo.o .Xo.XoXo  .Xo.",
" ..Xo.. . ..Xo . ..Xo.. . ..Xo . ..Xo.. . ..Xo . ..Xo.. . ..Xo .",
"o .....Xo Xo ..Xo .....Xo Xo ..Xo .....Xo Xo ..Xo .....Xo Xo ..X",
"Xo XoXoXo Xo Xo Xo XoXoXo Xo Xo Xo XoXoXo Xo Xo Xo XoXoXo Xo Xo ",
" o o .o Xo Xo o  o o .o Xo Xo o  o o .o Xo Xo o  o o .o Xo Xo o ",
". . ....X .. o  . . ....X .. o  . . ....X .. o  . . ....X .. o  ",
".Xo .XoXo.. . Xo.Xo .XoXo.. . Xo.Xo .XoXo.. . Xo.Xo .XoXo.. . Xo",
" .Xo Xo XoXo .Xo .Xo Xo XoXo .Xo .Xo Xo XoXo .Xo .Xo Xo XoXo .Xo",
"o .o .Xo o oXo  o .o .Xo o oXo  o .o .Xo o oXo  o .o .Xo o oXo  ",
" .. Xo. ... .o . .. Xo. ... .o . .. Xo. ... .o . .. Xo. ... .o .",
"Xo .. Xo..Xo Xo Xo .. Xo..Xo Xo Xo .. Xo..Xo Xo Xo .. Xo..Xo Xo ",
"Xo .o.Xo o. .. .Xo .o.Xo o. .. .Xo .o.Xo o. .. .Xo .o.Xo o. .. .",
".Xo.oXo .o Xo Xo.Xo.oXo .o Xo Xo.Xo.oXo .o Xo Xo.Xo.oXo .o Xo Xo",
".. . .Xo ..Xo Xo.. . .Xo ..Xo Xo.. . .Xo ..Xo Xo.. . .Xo ..Xo Xo",
"XoXo ..o Xo. o  XoXo ..o Xo. o  XoXo ..o Xo. o  XoXo ..o Xo. o  ",
"Xo .Xo. .Xo . ..Xo .Xo. .Xo . ..Xo .Xo. .Xo . ..Xo .Xo. .Xo . ..",
"o .Xo.XoXo  .Xo.o .Xo.XoXo  .Xo.o .Xo.XoXo  .Xo.o .Xo.XoXo  .Xo.",
" ..Xo.. . ..Xo . ..Xo.. . ..Xo . ..Xo.. . ..Xo . ..Xo.. . ..Xo .",
"o .....Xo Xo ..Xo .....Xo Xo ..Xo .....Xo Xo ..Xo .....Xo Xo ..X",
"Xo XoXoXo Xo Xo Xo XoXoXo Xo Xo Xo XoXoXo Xo Xo Xo XoXoXo Xo Xo ",
" o o .o Xo Xo o  o o .o Xo Xo o  o o .o Xo Xo o  o o .o Xo Xo o ",
". . ....X .. o  . . ....X .. o  . . ....X .. o  . . ....X .. o  ",
".Xo .XoXo.. . Xo.Xo .XoXo.. . Xo.Xo .XoXo.. . Xo.Xo .XoXo.. . Xo",
" .Xo Xo XoXo .Xo .Xo Xo XoXo .Xo .Xo Xo XoXo .Xo .Xo Xo XoXo .Xo",
"o .o .Xo o oXo  o .o .Xo o oXo  o .o .Xo o oXo  o .o .Xo o oXo  ",
" .. Xo. ... .o . .. Xo. ... .o . .. Xo. ... .o . .. Xo. ... .o .",
"Xo .. Xo..Xo Xo Xo .. Xo..Xo Xo Xo .. Xo..Xo Xo Xo .. Xo..Xo Xo ",
"Xo .o.Xo o. .. .Xo .o.Xo o. .. .Xo .o.Xo o. .. .Xo .o.Xo o. .. .",
".Xo.oXo .o Xo Xo.Xo.oXo .o Xo Xo.Xo.oXo .o Xo Xo.Xo.oXo .o Xo Xo",
".. . .Xo ..Xo Xo.. . .Xo ..Xo Xo.. . .Xo ..Xo Xo.. . .Xo ..Xo Xo",
"XoXo ..o Xo. o  XoXo ..o Xo. o  XoXo ..o Xo. o  XoXo ..o Xo. o  ",
"Xo .Xo. .Xo . ..Xo .Xo. .Xo . ..Xo .Xo. .Xo . ..Xo .Xo. .Xo . ..",
"o .Xo.XoXo  .Xo.o .Xo.XoXo  .Xo.o .Xo.XoXo  .Xo.o .Xo.XoXo  .Xo.",
" ..Xo.. . ..Xo . ..Xo.. . ..Xo . ..Xo.. . ..Xo . ..Xo.. . ..Xo ."
};
