/* XPM */
static char *ZmVuY2VfNjR4MzI_[] = {
/* columns rows colors chars-per-pixel */
"64 32 215 2 ",
"   c #4C2B15",
".  c #4D2B15",
"X  c #4E2B15",
"o  c #4E2B16",
"O  c #4D2C15",
"+  c #4E2C15",
"@  c #4F2C15",
"#  c #4F2D15",
"$  c #4D2C16",
"%  c #4E2C16",
"&  c #4F2C16",
"*  c #4F2D16",
"=  c #502D15",
"-  c #502C16",
";  c #502D16",
":  c #512D16",
">  c #512E16",
",  c #512E17",
"<  c #522E16",
"1  c #522E17",
"2  c #522F17",
"3  c #532F17",
"4  c #542F17",
"5  c #542F18",
"6  c #543017",
"7  c #553017",
"8  c #543018",
"9  c #553018",
"0  c #563018",
"q  c #573018",
"w  c #563118",
"e  c #573118",
"r  c #583118",
"t  c #583218",
"y  c #593218",
"u  c #583219",
"i  c #593219",
"p  c #5A3218",
"a  c #5A3318",
"s  c #5A3219",
"d  c #5A3319",
"f  c #5B3319",
"g  c #5C3319",
"h  c #5B3419",
"j  c #5B341A",
"k  c #5C3419",
"l  c #5D3419",
"z  c #5D3519",
"x  c #5E3519",
"c  c #5C341A",
"v  c #5D351A",
"b  c #5E351A",
"n  c #5F351A",
"m  c #5F361A",
"M  c #5F361B",
"N  c #60361A",
"B  c #61361A",
"V  c #60371A",
"C  c #61371A",
"Z  c #60361B",
"A  c #60371B",
"S  c #61371B",
"D  c #62371B",
"F  c #63371B",
"G  c #62381A",
"H  c #62381B",
"J  c #63381B",
"K  c #63391B",
"L  c #64381B",
"P  c #64391B",
"I  c #60381D",
"U  c #62381C",
"Y  c #63381C",
"T  c #64391C",
"R  c #65391C",
"E  c #66391C",
"W  c #653A1C",
"Q  c #663A1C",
"!  c #673A1C",
"~  c #673B1C",
"^  c #673A1D",
"/  c #693B1B",
"(  c #683A1C",
")  c #683B1C",
"_  c #693B1C",
"`  c #683A1D",
"'  c #683B1D",
"]  c #693B1D",
"[  c #693C1D",
"{  c #6A3C1D",
"}  c #6B3C1D",
"|  c #6B3D1D",
" . c #6A3C1E",
".. c #6B3C1E",
"X. c #6A3D1E",
"o. c #6B3D1E",
"O. c #6C3D1D",
"+. c #6F3D1C",
"@. c #6C3D1E",
"#. c #6D3D1E",
"$. c #6D3E1E",
"%. c #6C3E1F",
"&. c #6E3E1E",
"*. c #6E3F1E",
"=. c #6F3F1E",
"-. c #6E3E1F",
";. c #6F3F1F",
":. c #713F1D",
">. c #733F1C",
",. c #723F1D",
"<. c #733F1D",
"1. c #703F1E",
"2. c #713F1E",
"3. c #703F1F",
"4. c #593E2D",
"5. c #673D21",
"6. c #643D22",
"7. c #623D25",
"8. c #623E25",
"9. c #633E25",
"0. c #6A3F21",
"q. c #70401F",
"w. c #71401F",
"e. c #73401E",
"r. c #73411E",
"t. c #72401F",
"y. c #73401F",
"u. c #72411F",
"i. c #73411F",
"p. c #73421F",
"a. c #74401D",
"s. c #75411D",
"d. c #77411D",
"f. c #74411E",
"g. c #75411E",
"h. c #74421F",
"j. c #75421F",
"k. c #76421E",
"l. c #77421F",
"z. c #77431F",
"x. c #79421E",
"c. c #79431E",
"v. c #78431F",
"b. c #79441F",
"n. c #7B441F",
"m. c #584233",
"M. c #5F4330",
"N. c #584334",
"B. c #57493F",
"V. c #594A3F",
"C. c #6E4021",
"Z. c #6E4223",
"A. c #6B4124",
"S. c #6B4227",
"D. c #6D4224",
"F. c #6D4326",
"G. c #60432F",
"H. c #65442D",
"J. c #714020",
"K. c #704120",
"L. c #714121",
"P. c #724020",
"I. c #724120",
"U. c #734120",
"Y. c #734220",
"T. c #734221",
"R. c #744120",
"E. c #744220",
"W. c #754220",
"Q. c #744320",
"!. c #754320",
"~. c #744221",
"^. c #754221",
"/. c #754321",
"(. c #764220",
"). c #764320",
"_. c #774320",
"`. c #764221",
"'. c #764321",
"]. c #774321",
"[. c #774420",
"{. c #774421",
"}. c #784320",
"|. c #784321",
" X c #784420",
".X c #794420",
"XX c #784421",
"oX c #794421",
"OX c #794521",
"+X c #7A4420",
"@X c #7B4520",
"#X c #7A4421",
"$X c #7A4521",
"%X c #7B4621",
"&X c #794422",
"*X c #794522",
"=X c #7A4522",
"-X c #7B4522",
";X c #7A4622",
":X c #7B4622",
">X c #7C4622",
",X c #7C4722",
"<X c #7D4722",
"1X c #7C4623",
"2X c #7D4623",
"3X c #7D4723",
"4X c #7E4723",
"5X c #634633",
"6X c #644632",
"7X c #624634",
"8X c #684730",
"9X c #664936",
"0X c #5B4D43",
"qX c #584E48",
"wX c #0C5007",
/* pixels */
"wXwXwXwXwXwXwXwXwXwXwXwXwXwXwXwXwXwXwXwXwXwXwXwXwX3 o + o o $ + + + + + wXwXwXwXwXwXwXwXwXwX3 + + + * + o + + wXwXwXwXwXwXwXwXwX",
"wXwXwXwXwXwX3 S E E E E E ' j + wXwXwXwXwXwXwXwXwX+ k U E Y G U U G 3 3 wXwXwXwXwXwXwXwXwXwX+ G E E E E E E 3 wXwXwXwXwXwXwXwXwX",
"wXwXwXwXwXwX3 ).>X:X:X|.>X>XS + wXwXwXwXwXwXwXwXwXo 0.4X:X>X:X|.4X{.6 + wXwXwXwXwXwXwXwXwXwX+ y.>X{.:X:X:X).3 wXwXwXwXwXwXwXwXwX",
"wXwXwXwXwXwXo T.T.y.).T.).j.j o wXwXwXwXwXwXwXwXwXo ' |.T.).3.>.{.y.+ + wXwXwXwXwXwXwXwXwXwX+  .:Xq.C.T.).@.+ wXwXwXwXwXwXwXwXwX",
"wX3 e t t t t t c c k k t t c t t t t e t e t e t t t M t M c c c c t t t t t t 7 t t 7 t 7 7 j t k t k k k e e e e e e t t 5 3 ",
"+ S :X).).).).T.y.T.).T.).).).).).).).).).).).).).:X).).).).|.-X|.).:X:X:X|.:X|.:X{.:X:X:X:X:X{.).:X|.:X|.:X:X:X:X:X:X:X:X:X@.+ ",
"+ S :X:X).).).@.E U M @.T.3.3.3.>.0.3.>.3.3.T.j.).{.).).).3.S.0.3.T.T.3.T.T.).).).).Q.p.y.p.y.y.).y.T.0.T.y.q.>.@.T.T.j.j.|.3.3 ",
"+ S :X{.|.|.).:Xb.9XV.>.:X|.:X:X:X{.:X:X:X:X{.:X{.|.:X).].3.0X4.j.).).).).).:X).p.{.Q.p.y.y.y.y.y.>.7XB./ @.W W W  .).y.j.>X0.+ ",
"o U :X).|.:X{.{.b.A.7.j.j.).T.j.).).).j.).).).T.).).).{.j.{.5. .v.|.|.{.|.:X).).|.|.|.:X:X).:X:X:Xb.D.7.j.:X:X:X:X:X|.:X|.:X@.3 ",
"+ k :X).).).{.:X).:X:X{.).).y.T.T.).T.T.y.T.).{.T.y.T.).T.).{.:X).|.:X:Xb.:X:X:X:X:X|.:X:X:X).j.y.T.y.j.j.{.{.{.|.:X|.:X:X:X@.o ",
"3 3 4 e e 5 7 7 4 e e e t 7 j k k k k M k k S k k S S k k G G G G G G E W W E / / ' ' '  . .@. . . .@.@.@.q.q.q.@.>.T.T.@.y.@.3 ",
"wXwXwXwXwXwX+  .E '  .E E W 3 + wXwXwXwXwXwX+ + + o 7 k j j w w t 7 o o o o o o + + + o + + + + 3 + + + 3 + 6 + 3 + + + 3 3 3 + ",
"wXwXwXwXwXwX3 {.y.T.,Xy.:X:X3 wXwXwXwXwXwXwXwXwXwX+ E :X:X:Xy.y.>X0.+ wXwXwXwXwXwXwXwXwXwXwXwXS z.q.q.q.q.C.# wXwXwXwXwXwXwXwXwX",
"wXwXwXwXwXwX3 y.y.y.:Xy.y.{.3 wXwXwXwXwXwXwXwXwXwX+ G :Xp.,XQ.y.>X@.+ wXwXwXwXwXwXwXwXwXwXwXwXS ,Xy.{.y.{.Q.+ wXwXwXwXwXwXwXwXwX",
"wXwXwXwXwXwX6 p.p.y.:Xy.j.T.3 wXwXwXwXwXwXwXwXwXwX+ S :Xp.{.p.y.>X@.o wXwXwXwXwXwXwXwXwXwXwXwXS ,Xy.{.y.T.y.3 wXwXwXwXwXwXwXwXwX",
"wXwXwXwXwXwX6 p.y.Z.:Xy.{.y.3 wXwXwXwXwXwXwXwXwXwX+ k ).y.,Xp.p.>X .+ wXwXwXwXwXwXwXwXwXwXwXwXk ,Xy.{.p.y.y.3 wXwXwXwXwXwXwXwXwX",
"wXwXwXwXwXwX3 ).T.T.:X).).).3 wXwXwXwXwXwXwXwXwXwXwXS :Xy.:Xy.y.>XE + wXwXwXwXwXwXwXwXwXwXwXwXc :Xy.{.T.).T.3 wXwXwXwXwXwXwXwXwX",
"wXwXwXwXwXwX+ E E E @.' 5.' + wXwXwXwXwXwXwXwXwXwX$ j y.q.z.q.q.:XE o wXwXwXwXwXwXwXwXwXwXwXwXt :XT.{.z.z.j.+ wXwXwXwXwXwXwXwXwX",
"3 o 7 j t t t t e e 5 e 5 5 e 4 e 5 5 5 3 3 , e 6 3 6 6 3 6 6 6 7 3 3 - , 3 o + + 3 + + 3 o - 3 g j j j k k o o + + $ o + + wXwX",
"+ o  .:X-X:X:X|.:X|.:X|.|.|.|.:X).).|.).).j.T.T.y.T.y.y.y.y.y.y.q.y.3.3.>.0.>.0.q.@.>.@.@.@.@.0.}  . . .' /  .'  . .W / ' t + wX",
"+ + ^ -X).).&X).T.>.>.>.3.3.T.>.T.3.3.T.@.' ' E E y.y.T.z.b.C.v.:X:X:X:X:X:X|.:X:X:X:X:X-X).).3.@.y.y.a.y.y.T.j.).).).:X>XU o wX",
"+ $ ^ -X:X).&X).v.8XG.j.).).).).).).).).).).).).{.{.{.{.b.F.qX7.b.{.).).).:X).:X).{.).).|.).).3.} +.H.G.y.z.).j.).).).|.:Xk + wX",
"8 + E -X&X).).&Xv.5Xm.j.:X).v.|.).&X).|.).).:X).{.:X{.{.:XT.7.q.{.{.|.{.|.{.).).:X).|.:X:X).{.:Xb.b.6Xm.j.:X{.).|.|.).).>Xk + wX",
"+ + ^ -X-X-X-X-X:Xv.j.-X-X-X:X:X:X|.-X).).).).T.p.y.y.q.y.y.j.j.y.y.y.y.3.T.).).T.).:X).).:X:X>X:X:Xj.j.:X{.:X:X:X:X:X:X>Xk + wX",
"+ * M @. . . ./ ' ' E W W W W W E E E E W W G G E G U S F S S S k G S S S S k U S k S k S k k k t t t t t t t t t t t c t 5 , wX",
", + 3 + + + + 3 3 3 4 3 3 3 o o o o   o o + o + +   3 r 5 t r r j 6 o + + + + + + + + + + + + + S S E U U G + o wXwXwXwXwXwXwXwX",
"wXwXwXwXwXwX3 y.y.y.|.y.{.E + wXwXwXwXwXwXwXwXwXwXwXr ).T.|.:X).:Xj + wXwXwXwXwXwXwXwXwXwXwXwX4 |.>X:X).:X).3 wXwXwXwXwXwXwXwXwX",
"wXwXwXwXwXwX3 T.).j.:X).:XU + wXwXwXwXwXwXwXwXwXwXwXt ).T.:X).|.:Xt + wXwXwXwXwXwXwXwXwXwXwXwX3 j.:X).).).T.3 wXwXwXwXwXwXwXwXwX",
"wXwXwXwXwXwX3 y.y.).:Xy.{.G + wXwXwXwXwXwXwXwXwXwXwXt ).).:X).).:Xt wXwXwXwXwXwXwXwXwXwXwXwXwX3 >.|.).).).T.3 wXwXwXwXwXwXwXwXwX",
"wXwXwXwXwXwX3 ).{.).:X:X:XS + wXwXwXwXwXwXwXwXwXwXwX7 :X:X:X:X:X>Xt wXwXwXwXwXwXwXwXwXwXwXwXwX+ T.:X:X|.:X).+ wXwXwXwXwXwXwXwXwX",
"wXwXwXwXwXwX3 E E E E E ' t + wXwXwXwXwXwXwXwXwXwXwX3 E E ' '  .' e wXwXwXwXwXwXwXwXwXwXwXwXwX3 S E E E E S , wXwXwXwXwXwXwXwXwX",
"wXwXwXwXwXwX+ + o o + + o + wXwXwXwXwXwXwXwXwXwXwXwX3 o o + + + + + wXwXwXwXwXwXwXwXwXwXwXwXwXwXo o o o   o 3 wXwXwXwXwXwXwXwXwX"
};
